<svg width="422" height="248" viewBox="0 0 422 248" fill="none" xmlns="http://www.w3.org/2000/svg">
    <rect width="16.8127" height="16.7076"
        transform="matrix(0.866041 -0.499972 0.866041 0.499972 79.3052 96.3689)" fill="#EDE7F6" />
    <rect width="15.5644" height="15.4672"
        transform="matrix(0.866041 -0.499972 0.866041 0.499972 80.3794 96.989)" fill="#B39DDB" />
    <rect width="16.8127" height="16.7076"
        transform="matrix(0.866041 -0.499972 0.866041 0.499972 313.868 113.206)" fill="#EDE7F6" />
    <rect width="15.5644" height="15.4672"
        transform="matrix(0.866041 -0.499972 0.866041 0.499972 314.942 113.826)" fill="#B39DDB" />
    <rect width="16.8577" height="16.7524"
        transform="matrix(0.866041 -0.499972 0.866041 0.499972 197.03 197.992)" fill="#E3F2FD" />
    <rect width="15.1574" height="15.0627"
        transform="matrix(0.866041 -0.499972 0.866041 0.499972 198.514 198.609)" fill="#90CAF9" />
    <g opacity="0.09">
        <line y1="-0.28125" x2="243.574" y2="-0.28125"
            transform="matrix(0.866041 -0.499972 -0.866041 -0.499972 2.75488 123.341)"
            stroke="black" stroke-width="0.5625" />
        <line y1="-0.28125" x2="243.574" y2="-0.28125"
            transform="matrix(-0.866041 -0.499972 -0.866041 0.499972 213.695 242.007)"
            stroke="black" stroke-width="0.5625" />
        <line y1="-0.28125" x2="243.574" y2="-0.28125"
            transform="matrix(0.866041 -0.499972 -0.866041 -0.499972 17.4375 131.816)"
            stroke="black" stroke-width="0.5625" />
        <line y1="-0.28125" x2="243.574" y2="-0.28125"
            transform="matrix(-0.866041 -0.499972 -0.866041 0.499972 228.377 233.53)" stroke="black"
            stroke-width="0.5625" />
        <line y1="-0.28125" x2="243.574" y2="-0.28125"
            transform="matrix(0.866041 -0.499972 -0.866041 -0.499972 32.1201 140.293)"
            stroke="black" stroke-width="0.5625" />
        <line y1="-0.28125" x2="243.574" y2="-0.28125"
            transform="matrix(-0.866041 -0.499972 -0.866041 0.499972 243.06 225.054)" stroke="black"
            stroke-width="0.5625" />
        <line y1="-0.28125" x2="243.574" y2="-0.28125"
            transform="matrix(0.866041 -0.499972 -0.866041 -0.499972 46.8025 148.769)"
            stroke="black" stroke-width="0.5625" />
        <line y1="-0.28125" x2="243.574" y2="-0.28125"
            transform="matrix(-0.866041 -0.499972 -0.866041 0.499972 257.742 216.578)"
            stroke="black" stroke-width="0.5625" />
        <line y1="-0.28125" x2="243.574" y2="-0.28125"
            transform="matrix(0.866041 -0.499972 -0.866041 -0.499972 61.4851 157.245)"
            stroke="black" stroke-width="0.5625" />
        <line y1="-0.28125" x2="243.574" y2="-0.28125"
            transform="matrix(-0.866041 -0.499972 -0.866041 0.499972 272.425 208.101)"
            stroke="black" stroke-width="0.5625" />
        <line y1="-0.28125" x2="243.574" y2="-0.28125"
            transform="matrix(0.866041 -0.499972 -0.866041 -0.499972 76.1675 165.721)"
            stroke="black" stroke-width="0.5625" />
        <line y1="-0.28125" x2="243.574" y2="-0.28125"
            transform="matrix(-0.866041 -0.499972 -0.866041 0.499972 287.107 199.626)"
            stroke="black" stroke-width="0.5625" />
        <line y1="-0.28125" x2="243.574" y2="-0.28125"
            transform="matrix(0.866041 -0.499972 -0.866041 -0.499972 90.8503 174.197)"
            stroke="black" stroke-width="0.5625" />
        <line y1="-0.28125" x2="243.574" y2="-0.28125"
            transform="matrix(-0.866041 -0.499972 -0.866041 0.499972 301.79 191.148)" stroke="black"
            stroke-width="0.5625" />
        <line y1="-0.28125" x2="243.574" y2="-0.28125"
            transform="matrix(0.866041 -0.499972 -0.866041 -0.499972 105.533 182.674)"
            stroke="black" stroke-width="0.5625" />
        <line y1="-0.28125" x2="243.574" y2="-0.28125"
            transform="matrix(-0.866041 -0.499972 -0.866041 0.499972 316.472 182.672)"
            stroke="black" stroke-width="0.5625" />
        <line y1="-0.28125" x2="243.574" y2="-0.28125"
            transform="matrix(0.866041 -0.499972 -0.866041 -0.499972 120.209 191.148)"
            stroke="black" stroke-width="0.5625" />
        <line y1="-0.28125" x2="243.574" y2="-0.28125"
            transform="matrix(-0.866041 -0.499972 -0.866041 0.499972 331.155 174.196)"
            stroke="black" stroke-width="0.5625" />
        <line y1="-0.28125" x2="243.574" y2="-0.28125"
            transform="matrix(0.866041 -0.499972 -0.866041 -0.499972 134.892 199.626)"
            stroke="black" stroke-width="0.5625" />
        <line y1="-0.28125" x2="243.574" y2="-0.28125"
            transform="matrix(-0.866041 -0.499972 -0.866041 0.499972 345.837 165.719)"
            stroke="black" stroke-width="0.5625" />
        <line y1="-0.28125" x2="243.574" y2="-0.28125"
            transform="matrix(0.866041 -0.499972 -0.866041 -0.499972 149.574 208.101)"
            stroke="black" stroke-width="0.5625" />
        <line y1="-0.28125" x2="243.574" y2="-0.28125"
            transform="matrix(-0.866041 -0.499972 -0.866041 0.499972 360.52 157.244)" stroke="black"
            stroke-width="0.5625" />
        <path d="M164.314 216.61L375.259 94.8296" stroke="black" stroke-width="0.5625" />
        <line y1="-0.28125" x2="243.574" y2="-0.28125"
            transform="matrix(-0.866041 -0.499972 -0.866041 0.499972 375.202 148.767)"
            stroke="black" stroke-width="0.5625" />
        <line y1="-0.28125" x2="243.574" y2="-0.28125"
            transform="matrix(0.866041 -0.499972 -0.866041 -0.499972 178.94 225.054)" stroke="black"
            stroke-width="0.5625" />
        <line y1="-0.28125" x2="243.574" y2="-0.28125"
            transform="matrix(-0.866041 -0.499972 -0.866041 0.499972 389.885 140.291)"
            stroke="black" stroke-width="0.5625" />
        <line y1="-0.28125" x2="243.574" y2="-0.28125"
            transform="matrix(0.866041 -0.499972 -0.866041 -0.499972 193.622 233.53)" stroke="black"
            stroke-width="0.5625" />
        <line y1="-0.28125" x2="243.574" y2="-0.28125"
            transform="matrix(-0.866041 -0.499972 -0.866041 0.499972 404.568 131.814)"
            stroke="black" stroke-width="0.5625" />
        <line y1="-0.28125" x2="243.574" y2="-0.28125"
            transform="matrix(0.866041 -0.499972 -0.866041 -0.499972 208.304 242.007)"
            stroke="black" stroke-width="0.5625" />
        <line y1="-0.28125" x2="243.574" y2="-0.28125"
            transform="matrix(-0.866041 -0.499972 -0.866041 0.499972 419.25 123.339)" stroke="black"
            stroke-width="0.5625" />
    </g>
    <g filter="url(#filter0_d_1_37590)">
        <g filter="url(#filter1_d_1_37590)">
            <path
                d="M216.078 56.2922L158.886 88.9181L158.886 102.104V134.241C158.816 135.757 159.785 137.288 161.785 138.442L203.714 162.687C207.561 164.908 213.856 164.907 217.702 162.686L273.652 130.384C275.715 129.193 276.671 127.596 276.522 126.029L276.538 104.781V79.9181L267.742 76.0607L235.747 56.2922C231.901 54.0716 219.925 54.0714 216.078 56.2922Z"
                fill="#90CAF9" />
        </g>
        <g filter="url(#filter2_d_1_37590)">
            <path
                d="M144.952 110.936L158.935 87.6314C158.421 90.0744 160.542 91.8637 161.667 92.453C174.042 99.6318 199.436 114.375 202.008 115.918C204.579 117.461 207.954 118.168 209.24 118.489L198.15 141.633L144.952 110.936Z"
                fill="url(#paint0_linear_1_37590)" />
        </g>
        <path d="M229.33 58.5413V51.4697L275.135 77.3454L291.367 97.9174L229.33 58.5413Z"
            fill="url(#paint1_linear_1_37590)" />
        <path
            d="M217.7 52.1327L161.75 84.4355C157.903 86.6563 157.938 90.27 161.785 92.4906L203.714 116.735C207.561 118.956 213.856 118.956 217.702 116.735L273.652 84.4319C277.499 82.2111 277.499 78.5773 273.652 76.3567L231.688 52.1322C227.841 49.9116 221.547 49.9118 217.7 52.1327Z"
            fill="url(#paint2_linear_1_37590)" />
        <path
            d="M203.687 116.902L187.589 107.498L224.404 86.0449L247.471 99.5933L217.348 117.063C213.502 119.284 207.534 119.123 203.687 116.902Z"
            fill="url(#paint3_linear_1_37590)" />
        <g filter="url(#filter3_d_1_37590)">
            <path
                d="M224.99 139.865L212.937 118.489C215.508 118.168 216.901 117.257 218.401 116.4L272.724 84.8993C276.742 82.9706 276.42 79.5956 276.42 79.5956L287.671 101.775L224.99 139.865Z"
                fill="url(#paint4_linear_1_37590)" />
        </g>
        <path
            d="M216.806 40.6926L216.053 67.7849L210.572 70.949L209.796 44.74L216.806 40.6926ZM209.613 79.7556C209.613 78.6306 209.948 77.5056 210.618 76.3806C211.303 75.2292 212.201 74.3327 213.312 73.6911C214.439 73.0407 215.337 72.9001 216.007 73.2693C216.677 73.6208 217.012 74.3591 217.012 75.4841C217.012 76.5739 216.677 77.6902 216.007 78.8327C215.337 79.9753 214.439 80.8718 213.312 81.5222C212.201 82.1638 211.303 82.3044 210.618 81.9441C209.948 81.5749 209.613 80.8454 209.613 79.7556Z"
            fill="#673AB7" />
        <path
            d="M210.765 82.4069C207.671 80.1569 211.046 73.407 215.264 73.1257H218.639C218.077 74.7195 216.783 78.2444 216.108 79.5944C215.788 80.2356 218.077 82.4069 213.858 82.6882C213.858 82.6882 212.171 82.9694 210.765 82.4069Z"
            fill="url(#paint5_linear_1_37590)" />
        <path
            d="M220.181 40.6927L219.428 67.785L213.947 70.949L213.171 44.74L220.181 40.6927ZM212.988 79.7556C212.988 78.6306 213.323 77.5057 213.993 76.3807C214.678 75.2293 215.576 74.3328 216.687 73.6912C217.814 73.0408 218.712 72.9002 219.382 73.2693C220.052 73.6209 220.387 74.3592 220.387 75.4842C220.387 76.574 220.052 77.6902 219.382 78.8328C218.712 79.9754 217.814 80.8719 216.687 81.5222C215.576 82.1639 214.678 82.3045 213.993 81.9441C213.323 81.575 212.988 80.8455 212.988 79.7556Z"
            fill="#B39DDB" />
        <path d="M216.39 41.0632H220.327L213.296 45.2819L209.921 45.0007L216.39 41.0632Z"
            fill="url(#paint6_linear_1_37590)" />
        <path d="M210.484 71.1569L209.64 45.0007L213.296 45.282L214.14 71.1569H210.484Z"
            fill="url(#paint7_linear_1_37590)" />
    </g>
    <defs>
        <filter id="filter0_d_1_37590" x="110.077" y="40.574" width="216.165" height="205.903"
            filterUnits="userSpaceOnUse" color-interpolation-filters="sRGB">
            <feFlood flood-opacity="0" result="BackgroundImageFix" />
            <feColorMatrix in="SourceAlpha" type="matrix"
                values="0 0 0 0 0 0 0 0 0 0 0 0 0 0 0 0 0 0 127 0" result="hardAlpha" />
            <feOffset dy="47.25" />
            <feGaussianBlur stdDeviation="17.4375" />
            <feColorMatrix type="matrix"
                values="0 0 0 0 0.129412 0 0 0 0 0.588235 0 0 0 0 0.952941 0 0 0 0.1 0" />
            <feBlend mode="normal" in2="BackgroundImageFix" result="effect1_dropShadow_1_37590" />
            <feBlend mode="normal" in="SourceGraphic" in2="effect1_dropShadow_1_37590"
                result="shape" />
        </filter>
        <filter id="filter1_d_1_37590" x="122.883" y="54.6267" width="189.655" height="192.976"
            filterUnits="userSpaceOnUse" color-interpolation-filters="sRGB">
            <feFlood flood-opacity="0" result="BackgroundImageFix" />
            <feColorMatrix in="SourceAlpha" type="matrix"
                values="0 0 0 0 0 0 0 0 0 0 0 0 0 0 0 0 0 0 127 0" result="hardAlpha" />
            <feOffset dy="47.25" />
            <feGaussianBlur stdDeviation="18" />
            <feColorMatrix type="matrix"
                values="0 0 0 0 0.890196 0 0 0 0 0.94902 0 0 0 0 0.992157 0 0 0 0.5 0" />
            <feBlend mode="normal" in2="BackgroundImageFix" result="effect1_dropShadow_1_37590" />
            <feBlend mode="normal" in="SourceGraphic" in2="effect1_dropShadow_1_37590"
                result="shape" />
        </filter>
        <filter id="filter2_d_1_37590" x="139.327" y="82.0064" width="77.7876" height="67.5015"
            filterUnits="userSpaceOnUse" color-interpolation-filters="sRGB">
            <feFlood flood-opacity="0" result="BackgroundImageFix" />
            <feColorMatrix in="SourceAlpha" type="matrix"
                values="0 0 0 0 0 0 0 0 0 0 0 0 0 0 0 0 0 0 127 0" result="hardAlpha" />
            <feOffset dx="1.125" dy="1.125" />
            <feGaussianBlur stdDeviation="3.375" />
            <feColorMatrix type="matrix" values="0 0 0 0 0 0 0 0 0 0 0 0 0 0 0 0 0 0 0.04 0" />
            <feBlend mode="normal" in2="BackgroundImageFix" result="effect1_dropShadow_1_37590" />
            <feBlend mode="normal" in="SourceGraphic" in2="effect1_dropShadow_1_37590"
                result="shape" />
        </filter>
        <filter id="filter3_d_1_37590" x="204.499" y="77.9081" width="88.2341" height="73.7695"
            filterUnits="userSpaceOnUse" color-interpolation-filters="sRGB">
            <feFlood flood-opacity="0" result="BackgroundImageFix" />
            <feColorMatrix in="SourceAlpha" type="matrix"
                values="0 0 0 0 0 0 0 0 0 0 0 0 0 0 0 0 0 0 127 0" result="hardAlpha" />
            <feOffset dx="-1.6875" dy="5.0625" />
            <feGaussianBlur stdDeviation="3.375" />
            <feColorMatrix type="matrix" values="0 0 0 0 0 0 0 0 0 0 0 0 0 0 0 0 0 0 0.04 0" />
            <feBlend mode="normal" in2="BackgroundImageFix" result="effect1_dropShadow_1_37590" />
            <feBlend mode="normal" in="SourceGraphic" in2="effect1_dropShadow_1_37590"
                result="shape" />
        </filter>
        <linearGradient id="paint0_linear_1_37590" x1="204.355" y1="151.81" x2="156.689"
            y2="97.9164" gradientUnits="userSpaceOnUse">
            <stop stop-color="#E3F2FD" />
            <stop offset="1" stop-color="#90CAF9" />
        </linearGradient>
        <linearGradient id="paint1_linear_1_37590" x1="266.134" y1="74.2917" x2="285.099"
            y2="90.3636" gradientUnits="userSpaceOnUse">
            <stop stop-color="#1565C0" />
            <stop offset="1" stop-color="#1E88E5" />
        </linearGradient>
        <linearGradient id="paint2_linear_1_37590" x1="226.871" y1="21.7467" x2="185.963"
            y2="139.926" gradientUnits="userSpaceOnUse">
            <stop stop-color="#E3F2FD" />
            <stop offset="1" stop-color="#2196F3" />
        </linearGradient>
        <linearGradient id="paint3_linear_1_37590" x1="196.93" y1="65.1013" x2="200.039"
            y2="133.487" gradientUnits="userSpaceOnUse">
            <stop stop-color="#90CAF9" />
            <stop offset="1" stop-color="#1E88E5" />
        </linearGradient>
        <linearGradient id="paint4_linear_1_37590" x1="228.526" y1="144.526" x2="240.902"
            y2="84.2564" gradientUnits="userSpaceOnUse">
            <stop stop-color="#E3F2FD" />
            <stop offset="1" stop-color="#90CAF9" />
        </linearGradient>
        <linearGradient id="paint5_linear_1_37590" x1="209.64" y1="73.9695" x2="214.983"
            y2="82.4069" gradientUnits="userSpaceOnUse">
            <stop stop-color="#EDE7F6" />
            <stop offset="1" stop-color="#673AB7" />
        </linearGradient>
        <linearGradient id="paint6_linear_1_37590" x1="220.327" y1="40.782" x2="207.39" y2="46.1257"
            gradientUnits="userSpaceOnUse">
            <stop stop-color="#673AB7" />
            <stop offset="0.0001" stop-color="#673AB7" />
            <stop offset="1" stop-color="#EDE7F6" />
        </linearGradient>
        <linearGradient id="paint7_linear_1_37590" x1="211.89" y1="70.5944" x2="211.046" y2="36.282"
            gradientUnits="userSpaceOnUse">
            <stop stop-color="#EDE7F6" />
            <stop offset="1" stop-color="#B39DDB" />
        </linearGradient>
    </defs>
</svg>
    