<svg width="68" height="36" viewBox="0 0 68 36" fill="none" xmlns="http://www.w3.org/2000/svg">
    <g clip-path="url(#clip0_2026_701)">
        <path
            d="M53.9521 13.1128L52.5039 11.4463L55.1915 8.34459L56.5569 9.9187C55.7376 11.0063 54.8344 12.1175 53.9521 13.1128Z"
            fill="#3B82F6" />
        <path
            d="M50.2842 16.6888L48.6895 15.0916L51.6017 12.159L53.2192 13.7568L52.5732 14.4131L50.2842 16.6888Z"
            fill="#3B82F6" />
        <path
            d="M56.7954 19.2499L59.1699 16.9277L60.1332 17.9959L58.9906 19.2263L57.848 20.5039L56.7954 19.2499Z"
            fill="#3B82F6" />
        <path d="M54.4404 23.8411L53.2197 22.6489L56.1456 20.0265L57.2727 21.1114L54.4404 23.8411Z"
            fill="#3B82F6" />
        <path
            d="M51.9809 28.4358C50.0231 29.9439 47.9618 31.3149 45.812 32.5388C48.0018 31.3928 50.1084 30.0966 52.1164 28.6597C54.1383 27.2087 56.063 25.6287 57.8783 23.9299C58.812 23.1077 59.7158 22.2556 60.5898 21.3734L60.951 21.7547C56.2515 26.6196 46.9197 34.8941 37.8813 35.5221C37.8813 35.5221 24.7762 36.0378 31.1053 16.798C30.7889 17.9195 28.4392 26.9336 34.1557 26.2612C34.1557 26.2612 37.7262 26.7091 48.1198 16.0805L48.346 15.8566L49.9051 17.4932L49.5209 17.8967C48.3908 19.0182 47.2613 20.1391 46.1766 21.2378C45.0679 22.3473 43.8986 23.3953 42.6738 24.3772C41.4312 25.3864 40.2563 26.3717 38.9683 27.2476C37.7156 28.1367 36.293 28.7623 34.7879 29.086C34.043 29.2433 33.2732 29.2433 32.5283 29.086C31.7791 28.9015 31.1264 28.4458 30.6982 27.8084C31.125 28.4986 31.8056 28.9971 32.5961 29.1983C33.3328 29.3917 34.1009 29.4374 34.8556 29.3327C36.4085 29.053 37.8813 28.4408 39.1716 27.5388C40.4884 26.6833 41.7558 25.755 42.9678 24.7584C44.2099 23.7737 45.4054 22.7405 46.5803 21.6863C47.7552 20.632 48.8399 19.4427 49.9924 18.4124L53.3803 15.1163C54.9847 13.5691 56.4306 11.8874 57.8995 10.2058L59.5493 8.34459L60.9963 9.86898C59.5728 11.439 58.1493 13.0084 56.7034 14.5333C54.1498 17.0898 51.6645 19.6234 49.181 22.0903C47.9177 23.3235 46.6056 24.4895 45.2722 25.6104C43.9388 26.7313 42.5607 27.8528 41.1377 28.8398C39.7327 29.8513 38.2167 30.7013 36.6185 31.3734C35.8293 31.6957 34.9865 31.8696 34.1333 31.8863C33.7051 31.9313 33.2734 31.9313 32.8453 31.8863C32.6388 31.864 32.4394 31.7985 32.2603 31.6942C32.0811 31.5899 31.9263 31.4491 31.8059 31.2811H31.6911C31.8139 31.4765 31.9791 31.6423 32.1745 31.7664C32.37 31.8905 32.5909 31.9698 32.8211 31.9986C33.2573 32.0322 33.6954 32.0322 34.1315 31.9986C35.0061 31.991 35.8717 31.8237 36.6851 31.5051C38.3237 30.8714 39.8789 30.0433 41.3169 29.0387C42.777 28.0623 44.1854 27.0159 45.5421 25.8993C46.9202 24.8006 48.276 23.6569 49.5617 22.4459C51.7087 20.4052 53.8552 18.3651 55.9563 16.2572L57.4022 17.7821L52.7027 22.4909C51.5049 23.7019 50.2623 24.8678 48.9972 25.9888C47.7322 27.1097 46.3759 28.2312 45.0201 29.1732C43.6777 30.2009 42.2825 31.159 40.8403 32.0436C40.1213 32.4813 39.3659 32.8572 38.5824 33.1674C37.8362 33.5294 37.0178 33.721 36.1873 33.7281V33.8421C37.0333 33.8689 37.8747 33.7081 38.6502 33.3714C39.4242 33.0491 40.1787 32.6822 40.9098 32.2727C42.3805 31.422 43.7994 30.486 45.1591 29.4695C46.5303 28.4818 47.8861 27.4503 49.2263 26.3751C50.3564 25.4337 51.4859 24.4467 52.5253 23.4381L53.7421 24.7134C52.0351 26.416 50.216 28.0041 48.2967 29.4672C46.3417 30.9675 44.2891 32.3381 42.1524 33.5703C44.3273 32.4031 46.4254 31.1 48.4339 29.669C50.4618 28.224 52.3939 26.6509 54.2181 24.9596C56.0712 23.2779 57.8111 21.5068 59.5734 19.7351L60.274 19.0398L61.0871 19.8918C59.9122 21.1027 58.692 22.2915 57.4947 23.4819C55.7608 25.2438 53.9194 26.8982 51.9809 28.4358Z"
            fill="#3B82F6" />
        <path
            d="M63.4711 18.5314C63.4711 18.5314 62.6389 19.6014 61.1814 21.2175L60.8486 20.9117L62.6601 18.9898L63.2637 18.3566L63.4711 18.5314Z"
            fill="#3B82F6" />
        <path
            d="M61.6486 19.0727L60.8486 18.2602L63.5461 15.7349L64.0492 16.24L64.1864 16.3717L63.201 17.3594L62.6067 18.0403L61.6486 19.0727Z"
            fill="#3B82F6" />
        <path
            d="M61.0866 13.6435L58.4901 16.2522L57.8056 16.9273L56.3184 15.42L56.8373 14.9255C57.7582 14.0259 58.6785 13.081 59.576 12.159L61.0866 13.6435Z"
            fill="#3B82F6" />
        <path
            d="M65.1395 9.60336L61.6041 13.1127L60.1328 11.6148C61.3189 10.4304 62.5056 9.2455 63.6682 8.10603L65.1395 9.60336Z"
            fill="#3B82F6" />
        <path
            d="M61.3447 9.05963L59.8945 7.54265L62.8624 4.05301L64.4243 5.75203L62.9293 7.3822L61.3447 9.05963Z"
            fill="#3B82F6" />
        <path
            d="M68 1.84118L65.0534 5.00662L63.4702 3.32291L66.3068 0L67.758 1.54906V1.57131L68 1.84118Z"
            fill="#3B82F6" />
        <path
            d="M14.9709 22.8867L16.5038 24.5532L13.6577 27.6549L12.2124 26.1967C13.0622 25.0325 13.9836 23.9268 14.9709 22.8867Z"
            fill="#3B82F6" />
        <path
            d="M18.4849 19.3108L20.0796 20.9084L17.1674 23.8406L15.5498 22.243L16.1959 21.5868L18.4849 19.3108Z"
            fill="#3B82F6" />
        <path
            d="M11.974 16.7504L9.59947 19.0725L8.63623 18.0044L9.7788 16.7734L10.9214 15.4964L11.974 16.7504Z"
            fill="#3B82F6" />
        <path d="M14.3292 11.9205L15.5496 13.187L12.6245 15.9735L11.4966 14.9314L14.3292 11.9205Z"
            fill="#3B82F6" />
        <path
            d="M16.9264 7.56415C18.8725 6.0562 20.9212 4.6852 23.0578 3.46111C20.8812 4.60694 18.7874 5.90312 16.7917 7.34019C14.782 8.79103 12.8691 10.371 11.065 12.0701C10.137 12.8918 9.23871 13.7438 8.37006 14.6259L8.01107 14.2447C12.6819 9.38088 21.9568 1.10642 30.9401 0.478426C30.9401 0.478426 43.9653 -0.0344543 37.6747 19.202C37.9892 18.081 40.3246 9.06689 34.643 9.74218C34.643 9.74218 31.0942 9.29368 20.764 19.9229L20.5408 20.144L18.9913 18.5073L19.3731 18.1033C20.4963 16.9823 21.619 15.8614 22.6971 14.7621C23.799 13.6529 24.9612 12.605 26.1785 11.6233C27.4136 10.6141 28.5813 9.62877 29.8614 8.75289C31.1063 7.8634 32.5203 7.23758 34.0163 6.91393C34.7567 6.75723 35.5218 6.75723 36.2622 6.91393C37.0069 7.09867 37.6556 7.55454 38.0811 8.19214C37.6573 7.50152 36.9807 7.00294 36.1948 6.80224C35.4626 6.60865 34.6992 6.56275 33.949 6.66718C32.4057 6.94746 30.942 7.55959 29.6594 8.46112C28.3507 9.31704 27.091 10.2455 25.8863 11.2421C24.6501 12.2285 23.4618 13.26 22.2941 14.3165C21.1264 15.373 20.0483 16.5561 18.9029 17.5875L15.5355 20.8842C13.9409 22.4314 12.5038 24.1131 11.0439 25.7948L9.40422 27.6559L8.09896 26.0865C9.5138 24.5165 10.9286 22.9471 12.3657 21.4222C14.7691 18.9108 17.2392 16.3771 19.7099 13.9102C20.9655 12.632 22.2696 11.5111 23.5948 10.3896C24.9201 9.26805 26.2898 8.14712 27.7041 7.16068C29.1013 6.14966 30.6089 5.30026 32.198 4.62877C32.9825 4.30655 33.82 4.13264 34.6681 4.11589C35.0936 4.07087 35.5227 4.07087 35.9483 4.11589C36.1535 4.13813 36.3517 4.20357 36.5298 4.30789C36.7078 4.41221 36.8617 4.55304 36.9813 4.72109C36.8595 4.5253 36.6954 4.35913 36.5011 4.23471C36.3068 4.11029 36.0871 4.03076 35.8581 4.00191C35.4246 3.96829 34.9892 3.96829 34.5557 4.00191C33.6867 4.00914 32.8264 4.17644 32.0182 4.49542C30.4285 5.13708 28.9207 5.96501 27.5266 6.9618C26.0751 7.93698 24.6736 8.98419 23.3271 10.0995C21.9574 11.1982 20.6093 12.3419 19.332 13.5529C17.0862 15.593 15.0647 17.6337 12.9764 19.7416L11.5393 18.2167L16.2102 13.5079C17.4007 12.2969 18.6358 11.131 19.8931 10.0095C21.1504 8.88795 22.4984 7.76759 23.8459 6.8256C25.1801 5.79769 26.5667 4.83959 28.0003 3.95519C28.7145 3.51793 29.4649 3.14253 30.2432 2.83312C30.9848 2.47084 31.7982 2.27922 32.6238 2.27237V2.07064C31.7829 2.04385 30.9467 2.20466 30.1759 2.54135C29.4066 2.8639 28.6568 3.23076 27.9301 3.64005C26.4683 4.49073 25.0581 5.42674 23.7067 6.44322C22.3438 7.43099 20.9963 8.46245 19.6642 9.5376C18.5433 10.4796 17.4207 11.4672 16.3876 12.4753L15.2199 11.1971C16.9166 9.49458 18.7247 7.90648 20.6322 6.44322C22.5751 4.94288 24.6152 3.57223 26.739 2.34018C22.3906 4.68795 18.3609 7.58148 14.7479 10.9503C12.9068 12.632 11.1775 14.4037 9.42591 16.1748L8.72962 16.8701L7.9209 16.0181C9.08918 14.8072 10.3014 13.619 11.4919 12.428C13.2032 10.6984 15.018 9.07413 16.9264 7.56415Z"
            fill="#3B82F6" />
        <path
            d="M5.29932 17.3875C5.29932 17.3875 6.13069 16.2541 7.5894 14.5421L7.92184 14.9354L6.10955 16.9713L5.50703 17.6415L5.29932 17.3875Z"
            fill="#3B82F6" />
        <path
            d="M7.12179 16.9277L7.92124 17.7397L5.22562 20.2655L4.72284 19.7604L4.5835 19.6287L5.57048 18.6404L6.23292 17.9378L7.12179 16.9277Z"
            fill="#3B82F6" />
        <path
            d="M7.68213 22.3561L10.2786 19.7467L10.9631 19.0723L12.4504 20.579L11.9338 21.074C11.0129 21.9737 10.0927 22.9185 9.19514 23.8405L7.68213 22.3561Z"
            fill="#3B82F6" />
        <path
            d="M3.62939 26.396L7.14819 22.8867L8.63601 24.384C7.45548 25.569 6.27494 26.7533 5.11722 27.8933L3.62939 26.396Z"
            fill="#3B82F6" />
        <path
            d="M7.42434 26.9397L8.87453 28.5033L5.90665 31.9464L4.34473 30.27L5.83973 28.6616L7.42434 26.9397Z"
            fill="#3B82F6" />
        <path
            d="M0.769043 34.1804L3.71571 30.9927L5.29884 32.6764L2.46227 35.9994L1.01101 34.4503V34.4275L0.769043 34.1804Z"
            fill="#3B82F6" />
    </g>
    <defs>
        <clipPath id="clip0_2026_701">
            <rect width="68" height="36" fill="white" />
        </clipPath>
    </defs>
</svg>
    